/* XPM */
static char *_577037444085[] = {
/* columns rows colors chars-per-pixel */
"64 64 234 2 ",
"   c #261C14",
".  c #321E16",
"X  c #2C231C",
"o  c #2A2017",
"O  c #31251D",
"+  c #1D1E2C",
"@  c #1E212D",
"#  c #1F2634",
"$  c #272528",
"%  c #342B24",
"&  c #3A2D25",
"*  c #362C27",
"=  c #3C332C",
"-  c #3B3429",
";  c #222634",
":  c #242935",
">  c #222639",
",  c #252A3C",
"<  c #292B3D",
"1  c #2A2C34",
"2  c #373538",
"3  c #28313C",
"4  c #201F29",
"5  c #412E24",
"6  c #4C3A2D",
"7  c #45352A",
"8  c #543B2E",
"9  c #433B34",
"0  c #493D36",
"q  c #553E36",
"w  c #4C443C",
"e  c #4E493E",
"r  c #52463D",
"t  c #594539",
"y  c #63483B",
"u  c #6F513F",
"i  c #292E41",
"p  c #272E40",
"a  c #2B3144",
"s  c #2D344C",
"d  c #32394C",
"f  c #353949",
"g  c #343B55",
"h  c #373E58",
"j  c #383F59",
"k  c #353B54",
"l  c #2F3650",
"z  c #3E4148",
"x  c #3C4254",
"c  c #36425B",
"v  c #3B425C",
"b  c #3B4458",
"n  c #3D4560",
"m  c #494647",
"M  c #534A43",
"N  c #5B4C43",
"B  c #554946",
"V  c #5B534B",
"C  c #5D594E",
"Z  c #444856",
"A  c #4E5153",
"S  c #595858",
"D  c #574F53",
"F  c #634C41",
"G  c #655243",
"H  c #68564B",
"J  c #75584B",
"K  c #655C54",
"L  c #6A5D55",
"P  c #755D54",
"I  c #6B6554",
"U  c #6B655B",
"Y  c #6E695B",
"T  c #666258",
"R  c #7B6453",
"E  c #736C5D",
"W  c #796658",
"Q  c #7B604D",
"!  c #444A62",
"~  c #4B5365",
"^  c #4C5568",
"/  c #535C6C",
"(  c #555966",
")  c #555E72",
"_  c #5B6373",
"`  c #596477",
"'  c #5B6167",
"]  c #686867",
"[  c #736D62",
"{  c #796C61",
"}  c #776A66",
"|  c #767164",
" . c #7A7364",
".. c #7B766A",
"X. c #7E796D",
"o. c #74726C",
"O. c #686B76",
"+. c #7E7A72",
"@. c #777678",
"#. c #6F7070",
"$. c #845B52",
"%. c #8E5C56",
"&. c #856353",
"*. c #87695B",
"=. c #90675B",
"-. c #856E64",
";. c #996A63",
":. c #8D746C",
">. c #817B6E",
",. c #877264",
"<. c #937364",
"1. c #9B756B",
"2. c #957A6C",
"3. c #98766A",
"4. c #827D72",
"5. c #897C78",
"6. c #9B7B72",
"7. c #967D74",
"8. c #A57B6C",
"9. c #A27B73",
"0. c #A67971",
"q. c #A87674",
"w. c #7F807B",
"e. c #868276",
"r. c #8A8375",
"t. c #86857B",
"y. c #8A867A",
"u. c #8D897D",
"i. c #97847A",
"p. c #A58375",
"a. c #AC8474",
"s. c #AA8B7B",
"d. c #A7857A",
"f. c #B5897A",
"g. c #B6927D",
"h. c #C0957E",
"j. c #787B85",
"k. c #79808A",
"l. c #8D8B81",
"z. c #868787",
"x. c #928E82",
"c. c #9D8983",
"v. c #949286",
"b. c #969589",
"n. c #99958A",
"m. c #96988B",
"M. c #99998D",
"N. c #9B9486",
"B. c #9A9A91",
"V. c #97989A",
"C. c #888D99",
"Z. c #AD8D85",
"A. c #A78B85",
"S. c #B68A84",
"D. c #A9948A",
"F. c #B49484",
"G. c #BB958B",
"H. c #BE9B8D",
"J. c #B79588",
"K. c #BB9D96",
"L. c #BCA498",
"P. c #B9A293",
"I. c #9DA2A8",
"U. c #A6A9AB",
"Y. c #A9ACB5",
"T. c #ADB3B9",
"R. c #B6B6B9",
"E. c #BAADA8",
"W. c #8F95A0",
"Q. c #C49889",
"!. c #CB9C94",
"~. c #C59993",
"^. c #D39C99",
"/. c #C28B87",
"(. c #C9A28D",
"). c #CAA394",
"_. c #CAA699",
"`. c #D2A495",
"'. c #D3AB9B",
"]. c #DAAC9D",
"[. c #D3A898",
"{. c #D7B29D",
"}. c #CCABA1",
"|. c #DCAEA2",
" X c #D4A9A1",
".X c #DBB3A3",
"XX c #D9B6A8",
"oX c #C9BBB7",
"OX c #D5B8AF",
"+X c #E3AFA5",
"@X c #E2B2A5",
"#X c #E3B5AA",
"$X c #E3BCAC",
"%X c #E3BBA7",
"&X c #E4BCB4",
"*X c #EABCB4",
"=X c #E5B9B3",
"-X c #F0BDB2",
";X c #BCC0BF",
":X c #D2C2B7",
">X c #E4C2AE",
",X c #E9C1AE",
"<X c #E5C2B4",
"1X c #E9C4B4",
"2X c #ECC4BB",
"3X c #EDCABD",
"4X c #E8C5B7",
"5X c #F2C8BB",
"6X c #EFC9B5",
"7X c #BCBDC3",
"8X c #B4BBC2",
"9X c #BDC1C8",
"0X c #C3C5CA",
"qX c #C5CACA",
"wX c #C7C8CA",
"eX c #D9CAC7",
"rX c #CBCDD2",
"tX c #C3CAD3",
"yX c #CED2D4",
"uX c #CDD4DA",
"iX c #D2D4D6",
"pX c #D4D4DA",
"aX c #DADBDD",
"sX c #D8D8DA",
"dX c #D1D1C9",
"fX c #EDCBC2",
"gX c #F1CDC4",
"hX c #ECD1C4",
"jX c #E5E2DE",
"kX c #DBDCE2",
"lX c #DFE1E4",
"zX c #E2E4E6",
"xX c #E7E8EA",
"cX c #EFF0F2",
/* pixels */
"Y Y Y [ E [ [ [ [ o.| w.| |  .| X.X.+.+.+.e.+.[ C e 9 1 * 9 * 2 m B m 9 = - 2 e V I X.y.u.y.t.t.r.e.r.e.e.t.e.e.e.e.e.e.e.4.e.4.",
"Y Y Y [ [ [ [ [ | o.|  . .w.w.w.X.+.+.4.e.+.Y C w - X   X X * 2 9 m m w 0 - % * w 2 M  .u.u.u.e.t.r.r.t.r.t.e.e.e.e.e.e.e.e.e.4.",
"[ Y [ Y [ [ | | | |  . . . . .w.+.4.4.4.X.| T e - - X - M M 9 9 w 0 M M w w - 9 9 w M 2 K u.u.u.y.y.t.t.t.r.t.t.e.e.e.e.e.e.e.e.",
"Y Y [ [ [ o.| | | w.| w.w. .w. .+.4.4.4. .[ C w 9 % X e M w w w r M B e = * * - w M V B = ..u.u.y.y.y.r.y.r.r.r.e.r.r.t.e.e.e.e.",
"[ [ [ [ | | | ..w.R R w. .E w.w.X.e.4.4.E K e e 9 * w t H e e e m 0 = 9 * % % & 9 B B M 0 m u.u.u.u.u.y.u.y.y.y.t.y.r.e.e.e.e.e.",
"Y Y [ [ | | | o.E w.w. .w.w. .e.w.5.4.[ L C K t t 6 w t I G r 9 9 0 9 * * * = 7 w N B 9 % - ..u.x.u.t.u.y.y.y.y.r.r.y.t.t.r.e.e.",
"Y E | [ ..| ....w.w.E e. .w.e.w.4.e.4.U L K I H t t J ,.,.Q N 6 7 = = * O % * 0 r M V V = % V u.x.u.u.u.u.u.y.y.y.y.y.y.t.e.r.t.",
"E E | | } ......w.R w. .e. .e.e.e.5.[ L K Y *.I y *.a.g.J.6.R t 6 7 5 & % * 7 0 m V 0 w 7 $ 9 u.x.l.l.u.u.y.u.u.u.y.u.y.r.y.y.r.",
"I w.Q w. . . .E w.I  .r.w.w. .r.r.w.C C I ,.,.J &.g.(.{.'.H.6.&.y 7 5 7 - & 7 6 M M w % $ X X X.v.x.l.x.x.u.u.u.y.u.u.y.y.y.r.t.",
"I E E E w.E w.w.w.w.w. . .r.r.r.r.I I y E ,.Q Q p.)..XXXXX.XH.a.&.y 8 7 6 9 7 6 t M w = % X o [ x.x.x.x.u.u.u.u.u.u.u.u.u.r.y.r.",
"E E w.E R w.R w.R w.R w.w.r.r.w.w.C C G ,.E H Q (.{.$X>XXX>X].Q.a.=.u y y F u y t B M 9 %   o Y v.v.x.x.x.x.u.u.u.u.u.u.y.y.y.y.",
"E w.E  . . .w.E w.r.r.w. .w.r.r.w.C t E R u u r.{.>X>X1X4X$X].`.Q.a.;.&.J Q W &.J q 7 % X     C v.v.x.x.x.x.x.x.u.u.u.u.u.u.y.y.",
"E E  .w.E r. .r. .r. .w.r.r.r.r.C e G R G t G s.>X1X1X>X1X$X#X].`.h.f.8.3.3.=.3.;.J t 5 O   o E l.l.v.v.v.x.x.u.u.u.u.u.u.u.y.y.",
"E w.E E r. .w. .r. .r.w.w.r.r.w.e e G R G y Q H.>X6X6X1X1X1X*X%X{.`.Q./.f.a.a.g.g.1.&.8 .   o T b.v.v.v.x.x.x.x.u.v.u.u.y.u.y.u.",
"I w.w.R w. . .r.w. .w.r.r.r.r.E 6 N G R G G &.{.6X3X3X4X5X1X<X>X%X{.`.!.(.Q.f.a.!.(.g.*..     Y v.v.v.l.x.x.v.v.v.u.u.u.y.u.u.y.",
"E  .Q w. .E w. .r.r.w.r.r.r.r.E 6 y I R G G i.>X6X3XhX3XfXfX4X<X<X$X$X.X].[.[.Q.a.h.(.a.5 O O E b.b.b.b.v.v.u.u.u.v.u.u.u.u.u.u.",
"E  . . . . .w. .r.r.w.r.w.r.r.I 8 G Q I G y g.>X6XhX3X3X4X<X<X<X1X1X&X=X=XXX|. X{.g.h.g.& - - E v.m.v.v.u.b.u.b.u.u.u.u.u.u.u.u.",
"E  . . .w. .r.r. .r. .r.r.r.r.E 6 8 G G 8 u (.>X6X:X}.D.Z.K._.{..XXX%X#X#X.X.X'.{.{.{.P.& O - E m.v.b.b.m.u.N.u.u.b.u.u.u.u.u.u.",
" . . . . .w. .r.r.r.r.w.w.r.r.w.- 6 t t 8 r.{.>X_.s.6.2.*.P J 8.G.`. X].'.~.9.*.,.,.a.h.w   -  .m.b.v.b.m.b.v.u.u.u.u.N.u.u.u.u.",
" . . . . . . .w. .w.r.r.r.r.r.r.e 6 8 8 8 g.>X>X'.~.F.2.-.W &.<.a.~.`.`.d.&.J <.i.p.r.p.y   - u.v.b.b.v.v.v.v.v.N.b.u.u.u.u.u.u.",
"E  . . . . .r.r.r.r.w.r.r.w.r.u.u 8 8 t u {.>X>X[.s.,.:.q -.&.$.f.@X@X[.;.u 5 H ,.r.g.(.R o w u.m.m.b.v.v.v.l.v.b.u.u.u.u.u.u.u.",
" . . . . .r. .r.w.r. .r.r.r.u.u. .Q u y w.%X6X>X[.H.P.Z.P F.8.=.h.,X,X+Xa.=.8 $.A.&.g.[.<.O w u.m.m.m.b.b.b.v.m.u.b.N.u.u.u.u.u.",
"E  . . . .r.r.w.r.w.w.r.r.w.w.u.,.i.<.y r.6X6X6X>X>X.XH.d.q.;.;.`.-X-X@Xf.;.1.s.g.h.{.{.r.O T D.m.m.m.b.b.v.v.l.N.u.u.b.u.u.u.u.",
"E  .E  . . .r. .w.r.r.r.r.r.u.u.i.L.r.*.a.6XhXhX3X<X>X`.Q.f.f.).-X5X-X+X`.f.0.f.(.{.%XXX,.% w.M.m.m.m.m.v.v.l.v.b.N.N.N.u.N.u.u.",
" .E  . . .r. . .r.w. .r.u.w.u.u.u.L.s.<.d.&X3XgXfXfX2X%X].].%X&X5XgX*X#X].].`.[.%X>X>X{.R = v.M.m.m.m.b.m.v.v.l.v.u.u.u.v.u.u.u.",
" . . . . . .r.w.r.r.r.r.r.r.r.u.u.D.:X'.G.=X3XfX2X*X*X#X*X1X4X4X5XgXfX=X|.+X%X@X%X,X%X[.,.| n.M.m.m.m.m.v.v.m.v.b.b.v.N.u.u.N.u.",
" . . . . .w. .r. .r.r.r.u.r.u.u.u.u.{.:X_.OX&XfX*X*X*X*X-X*X*X*X5XgX2X*X].+X@X#X@X@X.XH.i.m.M.M.m.m.m.v.b.v.v.v.u.v.u.u.u.N.u.u.",
" . . . . . .r. .r.w.w.r.w.r.r.w.u.r.i.P.G.}.&X&X&X*X*X-X#X+X!.=XfXgX*X2X|.].#X#X@X.X XZ.N.m.m.M.m.m.m.b.m.v.b.v.N.v.b.u.v.u.u.u.",
"Q  . . . . . .w.w. . .r.r.r.u.u.u.u.r.G t H.OX&X2X&X=X=X+X^./. X_.|.'. X!.].].#X+X|._.i.N.M.M.M.m.m.m.b.v.v.b.v.v.v.u.N.u.u.v.u.",
" . . . . .,.r. . .r.r.w.w.r.r.r.y.t.t.H r i.OX&X=X=X=X=X+X^.^.~.q.d.6.0./.@X+X@X|.|._.5.M.m.M.m.B.m.m.b.b.v.v.v.v.v.N.u.u.u.u.u.",
" . . . .r.r. .r.r.r.w.r.r.r.r.r.t.t.u.E t 7.}.OX=X=X2X=X+X+X+X^.9.;.*.6./.|.@X@X|.'.G.u.M.m.m.M.m.m.m.m.v.b.v.v.v.u.u.v.N.u.u.u.",
" . . . . . .w. .r. . .r.r.w.r.r.u.u.u.w.M { K.}.OX=X=X=X[.!.G.S.q.6.$.9.8.Q.(.].{.'.s.c.B.M.m.m.m.b.m.b.v.N.v.v.v.v.v.u.u.u.u.u.",
"E {  . . .>.>...>.>.>.X.e.t.r.y.t.u.u.5.r N D.L. X.X$X Xq.;.S.~.!.^.~.^.S.q.q.G._.P.i.n.M.M.m.m.m.m.b.n.n.v.v.x.x.x.x.u.x.x.u.u.",
"E { {  .,.....>.X.X.e.e.e.e.t.y.u.u.u.y.M 0 A.Z.G.}.XXJ.P %.;.;.=.;.%.%.;.;.J q.(.s.r.D.B.M.N.m.b.b.b.n.n.v.v.c.v.x.x.x.u.u.u.u.",
"W  . . . ...X.>.>.>.>.e.e.e.t.r.u.y.u.u.C 7 i.A.A._. XZ.;./.^. X^.^./.^.~.!.S.q.J.:.N.B.B.m.M.m.m.N.b.n.n.v.v.v.x.x.x.l.u.x.u.u.",
"E  . . . .....>.>.>.X.e.>.e.e.t.e.u.u.l.>.r D.2.9.K._.i.F.^.^.~.S.S.S.S./.~.S.d.s.E M.B.M.m.M.m.m.b.b.v.v.v.c.v.v.x.x.l.u.u.u.u.",
"E {  . . ...X.X.>.>.e.e.e.e.e.e.t.t.y.u.t.x.}.p.7.c.Z.6.6.Z.S.q.;.J J 1.S.S.:.:.W y.M.B.B.M.m.m.b.b.b.v.N.v.v.x.x.x.x.x.x.u.u.u.",
"E E  .{  .X...X.>.>.X.X.>.e.e.e.t.t.u.t.z.oXXX).-.:.i.5.7.6.S.J.G.S.G.K./.9.,.L { B.M.B.M.M.M.N.m.b.b.b.n.v.v.v.x.x.x.u.u.u.u.r.",
"E E E  . . .X.X.X.>.X.e.>.e.e.e.t.t.z.w.T dXOX}.S.P } -.5.A.A.G.~.}. X XZ.2.W L m.M.M.B.M.M.m.m.b.b.b.b.v.N.x.x.x.x.x.u.u.u.u.r.",
"R E E E  ... .X.X.>.X.X.e.>.e.r.r.t.t.A ] zXOX}.~.d.P L -.l.5.6.Z.S.Z.Z.7.-.K t.M.M.B.B.M.M.M.m.b.b.b.b.v.v.v.v.x.x.u.u.u.y.u.u.",
"E E E  . .E w. ...>.>.>.>.e.e.r.r.t.#.1 U.zXhX'.~.G.9.-.K L U } :.1.:.-.W H i.U.X.M.B.B.B.m.m.m.n.n.v.v.b.v.v.v.x.x.u.u.u.u.y.y.",
"I E E E E w. . .>.>.>.>.>.e.5.r.r.j.Z $ yXxXxXoX~./.a.9.:.L B D D B N N G p.P.E.f @.V.B.B.B.m.m.B.n.n.v.v.c.x.x.x.u.u.u.y.u.u.y.",
"E E I E E  . .w...>.>.>.>.e.e.e.w.( x f aXxXxXjXoXS.q.9.9.6.:.P H J $.:.p.r.:XR.2 1 2 S @.v.V.m.B.n.v.n.v.b.x.x.x.x.u.u.y.u.y.y.",
"I E E E E E  .E ....>.>.>.e.e.w.] Z Z Z pXxXzXjXjXeXZ.6.9.6.1.-.-.:.1.9.i.;X:XT.a < < < 1 1 A w.b.n.b.b.c.v.v.x.x.u.u.u.u.y.u.y.",
"I E E E E  . . .....>.>.w.w.#.S b Z v x 7XxXzXkXkXaXhXK.i.9.6.2.;.6.q.A.oXdXqXT.2 i < , : > , , f #.l.v.v.v.v.v.x.l.u.u.r.y.y.y.",
"I I I Y E  . . .......>.+.S x Z v v v x I.lXkXkXkXkXkXpXeXK.9.6.6.7.E.eXaXpXqXR.m 3 3 , , # # , ; 1 f [ x.v.v.v.x.u.u.u.y.y.y.r.",
"I I Y E E | E  . .....' x x v n Z n n v j.uXzXkXpXkXlXkXpXsXwX}.7XR.E.pXkXiXwXqXA i i i p , , , , > ; > 2 ] l.n.x.x.u.u.r.y.y.r.",
"I I I I Y E E  ...] Z x x b n n n n n c / 8XxXzXlXpXpXkXkXyXO.#.#.~ ~ O.7XpXwXyX' i i s a , p p , , < > ; 1 1 S @.l.l.u.y.r.t.e.",
"I I I I I E [ } ( x c n c c n n n ! j n j W.kXxXxXcXlXxXlXO.~ ^ ~ ~ ^ ( S R.wXpXw.i i a a a i i p , p < ; < ; ; $ B z.u.y.r.r.e.",
"I I I I Y [ ] Z b v n n n n v n n n j j j O.0XxXcXcXcXxXz.f ) ) ^ / / Z A #.wXyXz.a a a i i a < p , , > < > > ; > @ D z.u.y.t.e.",
"I I I I U S z Z v v c c c n ! n ! ! n j j ^ U.aXcXcXxXU.] m ( _ ^ / ( Z Y.z.z.rXz.a i a a i a a i > p < < > ; ; > + 1 4.y.y.y.e.",
"I I I I D Z n v n v n v n c g c v n v j j v C.0XlXzXT.U.V.k.@._ _ / ( k.tXqXE.V.O.a a a i a i a i p > < < < < ; 1 ; ; #.u.r.y.e.",
"C I T A Z v v n n v v n n c j g v v ! ! v v j.Y.rXR.T.R.0XR.Y.C.` / Z I.pXrXrXR.] a a a a < a a i p i < < < < > > # : T t.y.y.t.",
"I C m b v n n v j v v n n n h h v v n v n v ` T.R.0XwXdXdX0X0XR.` b z k.pXpXpX0Xz.s a a a a a a i > > > i < < < , : ; S t.r.t.e.",
"M m v n n v v v v j v v j h h h v v v v v b v Y.yXiXsXaXiXpXrXY./ ~ b _ 7XrXrX7Xz.f s a a a a f i > p i < < < < > # ; m e.e.e.e.",
"x b n n c v v v v v v n l g h c v v v v v c h C.wXiXaXaXaXsXrXI.) ~ ~ _ W.rXrX7Xj.f a i a a a a i p > i < < < > > # @ 2 e.e.e.e.",
"j n v v v v j v j v n j g s h h v v v v v j j ] 7XyXaXaXaXpXtXj./ / ) j.j.uXuX9Xj.f s i a s a a p , , , < 3 < p > # @ $ 5.e.4.4.",
"h v v v v v v v v j v j h s h h v v v j v h h k Y.rXaXzXkXaXrX) / / ^ j.n tXuX8X@.l a i a a a a p , p , , , , # # # @ 4 ..e.4.+.",
"l h j j j v v v v v v h h l l j j j j j v h h x C.qXpXzXzXkXR.~ ~ _ ` ` ) 8XuX8X@.l s a a s a a , , p , , , < : # # # 4 ] e.4.X.",
"l g j j v v v v h j h h g h l h j v v b c b h h O.9XrXaXkXpXV.~ ~ / ` ` ` I.rX8X#.d a i a a a a > p , , 3 , , , # # # 4 T +.e.4.",
"g s h h j j j j h h h h l g l h h b h j x h h h v Y.0XyXaXuXz.! ~ / / ` _ C.yXT.O.d i i i i i i , p # p , 3 , , @ @ + $ m w.X.X.",
"k i l k h h j j h h h h h g h l h h j j j h k k k C.0XyXaXuXj.! n ^ / / ) j.rXT.] k s i i i i i p > > p , 3 , : # + + + 2 e.e.X.",
"s s a l l h h h g h h l l g h l k h h h h k k l g ( 7XrXsXiXk.n ~ ^ / / / O.0XY.] l i p i i i p p p p > 3 , , : @ @ @ @ 1 +.X.X.",
"a a i i s h g g g h g g l g h h l k h h h k g l g k Y.0XyXrX_ ~ ~ ^ / / / _ 9XY.( l i p i i i > p p # p , , , # @ @ @ + $ ..X.X."
};
