/* XPM */
static char *_577037450356[] = {
/* columns rows colors chars-per-pixel */
"64 64 244 2 ",
"   c #0C0503",
".  c #080503",
"X  c #150905",
"o  c #1C0C05",
"O  c #140E0A",
"+  c #1B0F09",
"@  c #120704",
"#  c #1D130B",
"$  c #19110A",
"%  c #1E1710",
"&  c #210E05",
"*  c #230F08",
"=  c #241106",
"-  c #2B1306",
";  c #23140B",
":  c #2B160A",
">  c #2D190D",
",  c #25180F",
"<  c #321606",
"1  c #351907",
"2  c #3C1A06",
"3  c #311609",
"4  c #341A0B",
"5  c #3B1C0B",
"6  c #391705",
"7  c #251A12",
"8  c #2C1C13",
"9  c #271913",
"0  c #331E12",
"q  c #3A1E12",
"w  c #3D210E",
"e  c #2E2016",
"r  c #2E2219",
"t  c #332115",
"y  c #3B2314",
"u  c #34241A",
"i  c #3B2A1C",
"p  c #3B2619",
"a  c #3B2B21",
"s  c #3F3127",
"d  c #411E0C",
"f  c #411F07",
"g  c #411F16",
"h  c #44220D",
"j  c #4A240D",
"k  c #4D290E",
"l  c #532B0E",
"z  c #442513",
"x  c #4A2611",
"c  c #442915",
"v  c #4C2A14",
"b  c #422B1B",
"n  c #4B2E1B",
"m  c #462619",
"M  c #522C13",
"N  c #5A2E14",
"B  c #522E1B",
"V  c #502710",
"C  c #49321D",
"Z  c #553115",
"A  c #5C3215",
"S  c #54321B",
"D  c #5C341B",
"F  c #5D391C",
"G  c #5F3A17",
"H  c #59300F",
"J  c #633B1D",
"K  c #663717",
"L  c #6D3913",
"P  c #4B3422",
"I  c #483525",
"U  c #543521",
"Y  c #5D3B23",
"T  c #5C3D2A",
"R  c #593727",
"E  c #4D372E",
"W  c #633B22",
"Q  c #693B26",
"!  c #733E2F",
"~  c #6A431E",
"^  c #74451C",
"/  c #59412E",
"(  c #594637",
")  c #684427",
"_  c #774728",
"`  c #694937",
"'  c #794A36",
"]  c #6A513E",
"[  c #785637",
"{  c #7C532A",
"}  c #5C524A",
"|  c #6A5445",
" . c #755A49",
".. c #6A564D",
"X. c #78614B",
"o. c #7B6456",
"O. c #766C66",
"+. c #864C1C",
"@. c #854929",
"#. c #87562C",
"$. c #955928",
"%. c #864A36",
"&. c #895737",
"*. c #935D33",
"=. c #955B3A",
"-. c #974C3C",
";. c #B35437",
":. c #8A653A",
">. c #9A653B",
",. c #9F672F",
"<. c #A66A2D",
"1. c #A56A37",
"2. c #AB7139",
"3. c #B8753A",
"4. c #BB6838",
"5. c #C0783C",
"6. c #865946",
"7. c #905646",
"8. c #A85A4F",
"9. c #8A6646",
"0. c #986648",
"q. c #947348",
"w. c #9C6B54",
"e. c #996858",
"r. c #9A7955",
"t. c #8E6C53",
"y. c #A66A48",
"u. c #B56C48",
"i. c #AA754A",
"p. c #B37B4D",
"a. c #BB7A4B",
"s. c #B67648",
"d. c #A66A55",
"f. c #AC7454",
"g. c #AC745C",
"h. c #A87757",
"j. c #B57C54",
"k. c #BB7C54",
"l. c #B47B5C",
"z. c #BC7D5B",
"x. c #B67457",
"c. c #BB615A",
"v. c #85756D",
"b. c #877569",
"n. c #8A7C73",
"m. c #877B75",
"M. c #886C64",
"N. c #AB7A66",
"B. c #BB7E63",
"V. c #B47D6B",
"C. c #BA7D6C",
"Z. c #B57965",
"A. c #B67E72",
"S. c #C27D4C",
"D. c #C57B46",
"F. c #C37B56",
"G. c #C76852",
"H. c #BD813E",
"J. c #C4803D",
"K. c #BC8245",
"L. c #A4845D",
"P. c #BC8454",
"I. c #BD825C",
"U. c #B78459",
"Y. c #8D827A",
"T. c #958373",
"R. c #A78966",
"E. c #BC8163",
"W. c #B3816E",
"Q. c #BC836C",
"!. c #BB8B64",
"~. c #AB916C",
"^. c #A58A72",
"/. c #BC8472",
"(. c #BD8A7B",
"). c #B78673",
"_. c #AA9577",
"`. c #B39B78",
"'. c #B6A17E",
"]. c #C38344",
"[. c #C6834B",
"{. c #C7894A",
"}. c #CB8C51",
"|. c #C4855B",
" X c #C88858",
".X c #CC945C",
"XX c #CC9356",
"oX c #D1945A",
"OX c #D18E56",
"+X c #C38464",
"@X c #C78965",
"#X c #CE9A64",
"$X c #C79466",
"%X c #D19965",
"&X c #C48B76",
"*X c #C5947A",
"=X c #D08962",
"-X c #D2A06E",
";X c #8E8583",
":X c #958B88",
">X c #9A928D",
",X c #9B9594",
"<X c #9E9A9A",
"1X c #9C9797",
"2X c #A49D98",
"3X c #A69784",
"4X c #B8A687",
"5X c #BBAD97",
"6X c #BEB19B",
"7X c #AAA59F",
"8X c #A59FA2",
"9X c #A5A2A4",
"0X c #ABA9AD",
"qX c #A8A6A8",
"wX c #B8B3AD",
"eX c #ADADB1",
"rX c #B1B2B6",
"tX c #B3B5BB",
"yX c #B6B9BE",
"uX c #B9BABE",
"iX c #BCBAB6",
"pX c #B1AFAF",
"aX c #C59585",
"sX c #C4B59C",
"dX c #CABA9C",
"fX c #C6B698",
"gX c #C0AE8F",
"hX c #C6BAA3",
"jX c #CBBDA4",
"kX c #C6BDAC",
"lX c #C9BEAB",
"zX c #C2B6A2",
"xX c #C4BEB4",
"cX c #C8C0AE",
"vX c #C9C2B4",
"bX c #CBC6BB",
"nX c #CCC8BE",
"mX c #C5C1BA",
"MX c #B6BAC0",
"NX c #B9BCC1",
"BX c #BFC0C3",
"VX c #C3C3C3",
"CX c #CAC6C2",
"ZX c #CCC9C3",
/* pixels */
"MXMXMXMXMXMXNXNXMXNXMXMXBXMXMXMXyXBXBXBXBXBXBXBXBXBXZXBXBXBXiXeX0XNXBXBXZXVXnXVXVXVXZXBXZXBXZXZXBXZXZXZXZXZXZXZXZXZXZXZXZXZXBXZX",
"MXMXMXMXNXNXNXMXMXNXMXBXyXBXBXBXBXBXMXBXBXBXBXBXBXBXyX<Xm.O.} / ( O.<XiXmXiXiXmXmXnXZXZXZXZXZXZXZXZXZXZXZXZXZXZXZXZXZXZXZXZXZXZX",
"NXMXMXBXMXMXMXNXMXMXMXMXMXBXyXMXMXBXBXBXBXBXBXBX9XO./ 7 e e 7 e r a ..qXwX2X;X>X1XwXmXZXZXZXZXZXZXZXZXZXZXZXZXZXZXZXZXZXZXZXZXZX",
"NXMXMXMXMXNXNXMXMXBXBXMXMXMXMXBXBXMXBXBXyXrX:X} s a r r r r u u u r a } O.( } } m.>XwXBXZXZXZXBXZXZXZXZXZXZXZXZXZXZXZXZXZXZXZXZX",
"NXMXBXMXMXMXNXNXMXyXyXBXBXMXBXMXMXBXMXyX<X} a i r r r u i u r e e % 7 7 % % % r I ..Y.wXnXZXZXZXZXZXZXZXZXZXZXZXZXZXZXZXZXZXZXZX",
"MXMXMXMXMXMXNXMXMXBXMXyXyXMXBXMXBXBXrX:Xs u r e r r u u i r e e 7 7 % % % % % r e s ( Y.wXBXZXZXZXZXZXZXZXZXZXZXZXZXZXZXZXZXZXZX",
"MXMXBXMXMXMXBXMXBXMXMXBXMXBXMXMXBXpX;Xs a e 8 t r r r e % # # # % % % % 7 r i s i C / ] Y.VXZXZXZXZXZXZXZXZXZXZXZXZXZXZXZXZXZXZX",
"MXMXyXMXBXMXMXMXMXMXMXyXBXMXMXyXtXO.a i t i p e r 7 % % $ $ O # % % $ $ 7 e i i i i i P ..7XZXZXZXZXZXZXZXZXZXZXZXZXZXZXZXZXZXZX",
"MXMXyXNXyXMXNXMXBXMXMXBXyXMXMXeXY.i i i p e 8 e 8 e 7 ; $ $ # 9 , % $ % 7 7 u u i C b C / Y.mXnXZXZXZXZXZXZXZXZXZXZXZXZXZXZXZXZX",
"MXyXMXyXyXMXMXNXMXMXMXBXyXMXeX>X} C i > ; ; 9 e a r 7 # $ $ , 9 , % % e , 8 8 r 0 u b b i ] 7XvXZXZXZXZXZXZXZXZXZXZXZXZXZXZXZXZX",
"yXyXuXyXyXMXyXuXyXMXyXNXyXrX<XO.I i , # 7 7 9 9 7 7 # # ; # 9 > , , > t : ; , 0 0 t t t i C T.wXnXnXZXZXZXZXZXZXZXZXZXZXnXZXZXZX",
"yXMXyXyXuXMXMXMXMXMXyXyXyX7XY.( C 8 9 9 7 e u e 8 7 > t p y 0 : > e y w z 0 + ; e t 0 , > i / 2XnXnXnXZXZXZXZXZXZXZXZXZXnXZXZXZX",
"MXMXMXMXyXMXMXuXyXyXyXuXqXY.} C p ; ; ; 9 a y b b i z c z y x B G F Y S S z 4 ; , t p t e p C T.vXnXnXnXnXnXnXnXnXnXnXnXnXnXnXnX",
"tXMXMXMXMXyXMXMXyXyXyXrX:X| I T 0 + 9 u a b b n p z U Q ) ' &.&.:.:.=.=.&.Q B g > t t > r t i ( 4XxXmXnXnXnXnXnXnXnXnXnXnXnXnXnX",
"MXMXtXMXyXyXyXyXyXyXrX2X..I P P ; 8 p u 0 , 0 m U _ ' %.&.0.y.y.y.y.y.0.>.#._ K w w t t t t p y Y.wXxXnXnXnXnXnXnXnXnXnXnXnXnXnX",
"tXtXMXMXyXyXtXyXyXyXrXn.E I T p 0 0 a p y q m B ! %.&.=.y.d.y.i.j.f.h.h.y.y.=.#.K Z w t t e t w ] wXxXmXnXnXnXnXnXnXnXnXnXnXjXnX",
"tXMXyXyXtXMXyXyXyXtX8X( / E C y p 8 u 8 q z B ! %.=.0.d.h.d.f.l.l.j.l.f.x.i.y.y.#._ v 4 > > > i C T.vXvXvXnXnXnXnXbXbXbXvXbXvXvX",
"yXyXyXyXMXMXyXtXuXrXn.T T n b b 0 # X ; 0 R [ 7.w.d.g.N.g.g.l.I.z.U.l.l.l.j.s.y.1.*._ w t t y c c b.wXmXvXmXmXbXbXbXbXbXbXvXvXvX",
"tXtXyXMXMXyXMXtXtX9X| C P n P p 9 ; > 8 m ' d.N.A.A.A.C.!.W.l.E.E.z.l.E.I.z.j.p.j.1.:.J w 1 0 i c ] 4XxXxXvXvXnXbXbXbXbXvXvXvXvX",
"yXyXtXtXtXyXtXtX0X>X( C P n p > t 8 , m U  .N.W.A.aXaXC.Q.Q.E.E.I.B.U.E.I.I.k.j.j.i.,.*.k t y c c C T.wXxXcXbXmXvXvXvXvXvXvXvXcX",
"eXMXMXMXtXMXrXeXeXO.( C y n t 0 9 8 9 m U 7.N.N.3XA.&XC.Q.E.Q.E.z.z.l.P.F.P.k.P.j.p.2.>.{ w 1 i w c / 3XkXkXvXvXvXvXvXvXvXvXvXcX",
"MXMXMXMXtXtXrXrX<Xo.U n 0 n 0 9 ; 8 8 B R e.N.A.&X&XaXC.Q.Q.Q.E.I.W.B.z.z.z.k.a.p.p.p.p.>.~ 4 y w w t X.5XcXbXvXbXvXvXvXvXcXvXcX",
"MXMXMXeXMXMXeXrX,X .U p = b 0 + * ; q B T e.N.A.).3X&X/.Q.Q.Q.B.E.B.z.z.z.z.k.p.p.p.p.U.L.>.c w w t > y >XkXvXxXvXvXvXvXvXcXcXcX",
"eXMXMXMXrXrXeX0X;X..S 4 o y 0 $ X * m m  .N.W.W.).(.(./.Q.Q.Q.B.E.E.E.I.E.z.x.p.q.0.i.U.U.i.F y 4 , = > o.6XkXcXvXcXcXcXcXcXcXcX",
"MXMXMXMXtXeXeX0Xn.| B 4 + 8 0 = X * m Q e.N.A.N.A.(.(.A.Q.Q.+X&X+XE.+XE.z.f.7.' Q n W 7.U.U.~ e > , # = / 3XhXcXcXcXcXcXcXcXcXcX",
"MXeXeXMXtXrXrX9XM.| U 4 9 o * * X 0 Q 7.d.d.M.6.M.6.e.N.B.Q.+X+X+X+XF.p.=.K N D K _ _ _ h.U.~ t A 1 o o C b.6XcXcXcXcXcXcXcXcXcX",
"MXMXMXeXtXtXqX2Xo.` B q ; # O X + g  .7.6.E m m q z m Q &.l.+X+X+X|.|.>.$.#.>.2.a.K.a.k.U.!.{ F <.J # X i X.7XcXcXcXcXcXcXjXcXcX",
"eXMXeXMXrX0X2X>Xo.` U z ; # X O X m 7.0.! | 7.e.w.7.%.7.%.y.E.+X@X=X}.3.4.1.@.@.%.=.3.|.U.!.:.$.$.h # X w [ _.cXcXcXcXcXjXcXcXjX",
"MXMXMXeXeXqX2Xn. .T U y 8 * # @ @ R 6.e.e.g.8.0.7.@.! %.8.8.x.+X+X.X].4.,.! ! : E 6.#.s.P.!.q.*.- o o X 4 [ _.6XkXhXlXlXlXlXlXlX",
"eXMXMXeXeX8X;Xm. .T S q : = * X O T e.e.e.e.%.` E 8 ! ! ! %.d.A.&X.Xs.<.@.6.o.u | 0.=.1.P..Xi.*.X X @ @ > { T.6XkXlXlXlXlXcXlXjX",
"MXMXeX0XeX1X>XM. .` n h 9 = o + @ ` e.N.e.7.! M.E r O...%.e.e.A.&X|.3.<.@.%.7.! =.y.p.p.U.!.h.#.@ @ @ o > ) ^.5XwXjXlXjXlXlXcXjX",
"MXeX0XMX9X;X;Xo. .Q B y > o = # O ! e.N.N.e.d.e.6.! ' %.7.7.N.A.&XP.u.1.7.d.c.B.|. XU.U.P..XP.{ @ @ @ = 1 G T.5X6XjXlXlXlXlXjXlX",
"tXtXrXrX1X>Xv.6.` W n 5 - + X ; X ! w.V.).W.V.N.N.N.d.d.6.N.V.V.Q.I.u.1.y.f.F.+X=X.XI. X X$Xp.C @ X X - 4 ~ q.4X6XwXhXcXcXhXcXjX",
"tXtXrXrX,XY.o.| ` Y v q : # X + + R w.V.W.).).).W.V.g.w.N.V.V.C.Q.l.s.u.1.i.z.+X$X@X@X X X@Xp.* X o o - w ~ t._.hXhXdXcXhXjXjXjX",
"rXtXrXeX,XO. .] _ Y x 4 , , + * o p 0.V.).).aXaXW.N.V.V.).A.Z.V.C.x.x.a.s.u.p.z.|.+X@X X X=Xp.o $ o o 1 k G X.^.6XhXhXhXjXcXcXjX",
"rXrXtXeX>Xo.] ` ) Y x 0 ; 9 * ; o o [ N.Q.!.&XaX).V.V.).A.A.C.Z.B.x.u.a.D.S.x.z.|.@X=X X$X%X>.o o o = 4 w G [ _.6XhXhXhXjXdXcXjX",
"tXtXrXqX>X .` ` ) D c 4 0 > ; ; o o R g.A.C.aXaXaX&X&XA.A.C.Z.Z.C.F.u.u.D.D.a.F.=X=X=X=X=X#X#.o o = : 2 w Z [ R.5X6XhXdXjXjXjXjX",
"rXrXrXqXm.t.` ) S Z n 4 0 9 = = o X q e.C.C.&XaXaX*X+XB.g.d.c.A.C.B.F.a.3.D.S.[. X=XoXOXoXP.- o = = > w h v ] L.4XdX6XcXhXjXjXjX",
"rXrXeX9Xn.o.` U n D z m y : = : @ . : 6.Z.C.C.&X*X&X+XF.u.8.Z.C.&XF.=X=XD.5.5.5.}.oXOXoX#Xp.= : - = - w v Z ) R._.6X6XjXjXjXcXjX",
"rXtXpX1XY.o.) U C B c m 0 > - ; . . @ ! x.B.C.C.&X@X|.F.u.Z.F.d.F.F.D.4.D.5.5.3.[.oXOXoX.Xi.4 4 - = > h k F ) q.`.5X5XdXjXjXjXjX",
"rXrX0X1Xn.M.T E U v m z 4 > > = @ . . T d.g.Z.B.B.@XF.S.Z.C.c.8.F.D.D.4.3.s.5.5.J.}.OXoX.Xq.1 < 1 - < c Z G ~ [ ~.4XfXdXdXjXdXcX",
"rXeX8X2Xm.v.( R U c c z z y - & . . . a e.g.g.B.|. XS.z.A.A.Z.Z.F.S.S.D.a.a.[.{.J.{.}.oX.X:.1 - > > 1 h G ~ ) { q.3X5XfXhXcXcXdX",
"eXeX9X,Xm.n.| B S x B Z v 2 4 =   . . O 0.g.x.Z.P.F.a.Z.A.A.Z.Z.F.x.k.a.a.a.[.].J.{.OXoXXXF 4 < 1 1 < h Z ) ~ #.:.L.4X6XdXjXdXjX",
"rXeX9X,Xv.m.X.M B n F D j z : o     .   | h.l.l.z.|.u.s.g.Z.Z.Z.x.x.G.D.a.s.u.<.J.}.oXoXU.1 2 w - 1 w w Z ~ { { q.q.~.5XdXjXjXjX",
"eXeX8X>Xv.Y. .B B S J K V d - * @     . 0 e.Z.x.E.|.K.*.7.7.;.8.u.;.4.4.;.;.4.3.{.XXXXoX[ 2 < 4 1 4 2 w k G { [ q.:.L.4XfXcXdXjX",
"eXeX8X:Xv.n.` D D v J N v 0 = o     @ @ @ ` g.Z.U.|.P.f.d.d.8.c.;.;.;.;.;.G.5.].{.}.XXK.w 2 2 4 > 4 < w k H ~ { q.L.r.`.gXdXdXdX",
"eXqX2X>Xn.o.T R D B J v h 3 * * @ @ o X o * 6.j.l.E.z.z.g.g.8.c.G.G.G.G.D.[.5.{.{.XX{.~ 2 1 2 2 5 3 1 5 j Z G { q.L.L.`.fXdXdXcX",
"eX9X2X,Xb. .Y / N W K v d - - : o @ o 0 > o p 0.h.j.l.l.x.g.p.x.G.F.G.[.].[.{.{.{.{.,.1 w 1 5 w 5 - < 1 h k G { :.q.~.`.gXdXdXdX",
"0XqX2X>Xn.` / ) D F k j 2 > - > o o o o : 0 6 R 7.y.h.j.l.l.k.F.S.S.D.[.].{.{.}.].3.H 2 d d 5 5 4 < - 2 f l H ~ #.q.~.'.4XdXdXcX",
"qXqX<X:XM.` ` W W D h h - : - 5 - o : X o - 6 j W =.h.l.l.Z.z.z.F.F.F.[.{.{.{.{.3.$.H 6 5 5 d h w 3 : 1 w k N K { q.~.'.4XdXdXjX",
"0XqX1X;XM.] ( W W N h z - : - 1 4 o = = X o - m _ &.&.h.g.B.B.B.+X+XF. X}.}.{.H.3.$.L 2 4 5 d d 5 < < 2 w j Z K ^ :.~.'.'.fXdXjX",
"eXqX,X;X .] T W D D z h - - 3 3 1 * * 3 * o & m _ 0.q.0.f.z.B.B.+X=X X}.}.{.{.H.2.$.L h - 5 x j 5 > < 1 w h l H ^ :.~.'.'.dXdXjX",
"0XqX1Xm.| ` T W D D x q 3 - - 1 < & o * > o o 4 W =.d.h.0.i.l.B.F. X X}.{.{.H.H.<.<.+.h - 4 j q 2 4 1 1 2 h k H ~ :.R.`.fXdXdXdX",
"eXqX1Xv.` | R K D J v d 4 3 - < - & X X > - & - S &.q.h.h.h.y.a.S.[.S.D.{.{.H.H.<.$.+.k 5 d q - > 4 w 5 5 5 j H G { L.R.'.dXdXdX",
"eXqX:XO.| | Q R D D v d d 5 2 3 * * @ @ * > & & x _ 0.h.h.R.+XU. X{.}.XXXXJ.H.H.<.+.+.l 5 3 : 6 : = w h h d h l ~ ^ L.L.#XfXdXjX",
"qX1Xm.O. .| W W D D M j v h h < & * @ @ o - - - 5 _ >.i.R.g.!.$X#X%X#XoXXX{.{.H.3.<.+.j 3 3 3 4 < o 1 h v j h k H ~ >.L.`.gXdXdX",
"qX:Xm.m. .` W J N B M x B v m 6 & * o X o = d < 2 K #.y.l.R.!.$X$X-X#XoXXXXX{.H.<.<.#.k 2 4 4 3 4 = : h k k j h H ~ L.L.~.'.dXdX",
",Xm.;X:X .| ) F M v v x d M v 5 & * * o - o 5 6 5 N #.>.h.L.!.*X*X-X-X%XXXXXK.H.1.,.+.H h h d 3 5 - = w 1 H j w l l X.R.L.'.dXdX",
"m.;X1X:Xt.] J Z v h v z d x v d * o o o ; * 3 5 2 V ^ =.i.L.!.!.-X-X-X#XXXXXK.,.2.,.@.K V v d d 5 : < 2 w k k w h k w / X._.fXdX",
":X1X2X:XX.) A v m w x z d x j 5 & o X o o * - d 5 d K #.i.p.U.!.!.#X#XXXXXXXK.,.1.$._ K N M x j 2 5 < - h 2 H h w G i t % 7 X.`.",
"8X1X,XO.] J Z M x 0 z j d x x z * o X o o * - d d f A @.>.p.U.!.$X#X#X#X#XXXH.,.1.#._ Q Q N V g 5 d 4 - w w l h C ) C % $ 7 % % ",
"8X1X;X .) D D B c - z M V j x x 4 o o o o - - d 5 d N L :.K.P..X$X#X#X.X#X!.K.$.1.*.@.Q Q D N j d x 6 - w w l l G [ C $ O $ $ $ ",
"9Xm...` F Z S z y 8 m D N j x x h * & * : * - 6 5 d V L $.2.P.U..X#X.X#X#X.XH.>.>.=.@.! Q N N N d x 6 3 w w k G G [ / O O O O % ",
"v. .Q D v v S 3 0 z n D D j j v j : & * 0 * - d 3 d V L { 2.P..XXX.XXX.X!.!.i.i.y.=.@.%.! L N K N V 5 3 w w k Z G X.s O O O O O "
};
