/* XPM */
static char *_577038454150[] = {
/* columns rows colors chars-per-pixel */
"64 64 249 2 ",
"   c black",
".  c #010000",
"X  c #010101",
"o  c #020101",
"O  c #030101",
"+  c #040101",
"@  c #050101",
"#  c #040202",
"$  c #050202",
"%  c #060202",
"&  c #070202",
"*  c #070303",
"=  c #080202",
"-  c #0A0303",
";  c #0B0303",
":  c #0B0404",
">  c #0C0404",
",  c #0D0404",
"<  c #0D0505",
"1  c #0F0505",
"2  c #100505",
"3  c #110505",
"4  c #110707",
"5  c #120606",
"6  c #120707",
"7  c #140707",
"8  c #150707",
"9  c #150808",
"0  c #160909",
"q  c #170909",
"w  c #170A0A",
"e  c #180A0A",
"r  c #190A0A",
"t  c #1A0B0B",
"y  c #1B0C0C",
"u  c #1C0C0C",
"i  c #1D0C0C",
"p  c #1D0D0D",
"a  c #1E0D0D",
"s  c #1E0E0E",
"d  c #1F0E0E",
"f  c #200F0F",
"g  c #221010",
"h  c #231010",
"j  c #241010",
"k  c #251111",
"l  c #261111",
"z  c #251212",
"x  c #261212",
"c  c #281414",
"v  c #291515",
"b  c #2B1515",
"n  c #2C1616",
"m  c #2C1717",
"M  c #2E1717",
"N  c #2F1717",
"B  c #2E1818",
"V  c #301717",
"C  c #301818",
"Z  c #321919",
"A  c #311A1A",
"S  c #321A1A",
"D  c #331A1A",
"F  c #341919",
"G  c #341A1A",
"H  c #341B1B",
"J  c #351B1B",
"K  c #361C1C",
"L  c #371D1D",
"P  c #381D1D",
"I  c #391E1E",
"U  c #3A1E1E",
"Y  c #3E2121",
"T  c #3F2121",
"R  c #422323",
"E  c #432323",
"W  c #432424",
"Q  c #442424",
"!  c #462525",
"~  c #462626",
"^  c #472626",
"/  c #482727",
"(  c #492828",
")  c #4A2828",
"_  c #4B2828",
"`  c #4B2929",
"'  c #4C2929",
"]  c #4D2929",
"[  c #4E2B2B",
"{  c #502B2B",
"}  c #502C2C",
"|  c #512C2C",
" . c #522D2D",
".. c #542E2E",
"X. c #552F2F",
"o. c #562F2F",
"O. c #563030",
"+. c #573030",
"@. c #583030",
"#. c #5B3232",
"$. c #5B3333",
"%. c #5C3434",
"&. c #5D3434",
"*. c #5E3535",
"=. c #5F3535",
"-. c #603535",
";. c #603636",
":. c #613636",
">. c #633737",
",. c #643838",
"<. c #653838",
"1. c #663939",
"2. c #693B3B",
"3. c #6E3D3D",
"4. c #6E3E3E",
"5. c #6F3E3E",
"6. c #703F3F",
"7. c #754242",
"8. c #764343",
"9. c #784444",
"0. c #794444",
"q. c #7A4545",
"w. c #7B4545",
"e. c #7B4646",
"r. c #7E4747",
"t. c #7F4848",
"y. c #804848",
"u. c #814949",
"i. c #824A4A",
"p. c #854C4C",
"a. c #864C4C",
"s. c #874C4C",
"d. c #864D4D",
"f. c #874D4D",
"g. c #884D4D",
"h. c #8A4F4F",
"j. c #8B4F4F",
"k. c #8C5050",
"l. c #8E5151",
"z. c #8F5151",
"x. c #905252",
"c. c #925353",
"v. c #925454",
"b. c #965555",
"n. c #965656",
"m. c #975656",
"M. c #985656",
"N. c #985757",
"B. c #995757",
"V. c #9C5959",
"C. c #9D5A5A",
"Z. c #9E5A5A",
"A. c #9F5B5B",
"S. c #A05B5B",
"D. c #A15C5C",
"F. c #A25D5D",
"G. c #A35D5D",
"H. c #A55E5E",
"J. c #A55F5F",
"K. c #A65F5F",
"L. c #A75F5F",
"P. c #A66060",
"I. c #A86060",
"U. c #A96161",
"Y. c #AA6262",
"T. c #AC6262",
"R. c #AC6363",
"E. c #AD6363",
"W. c #B06565",
"Q. c #B16666",
"!. c #B46767",
"~. c #B46868",
"^. c #B56868",
"/. c #B66868",
"(. c #B86969",
"). c #B86A6A",
"_. c #B96B6B",
"`. c #BA6B6B",
"'. c #BB6B6B",
"]. c #BC6C6C",
"[. c #BD6D6D",
"{. c #BE6D6D",
"}. c #BF6D6D",
"|. c #BF6E6E",
" X c #C16F6F",
".X c #C26F6F",
"XX c #C27070",
"oX c #C37070",
"OX c #C37171",
"+X c #C47171",
"@X c #C67272",
"#X c #C77373",
"$X c #C87373",
"%X c #C97474",
"&X c #CB7575",
"*X c #CC7676",
"=X c #CD7676",
"-X c #CE7777",
";X c #D17878",
":X c #D07979",
">X c #D17979",
",X c #D27979",
"<X c #D37A7A",
"1X c #D47A7A",
"2X c #D47B7B",
"3X c #D57B7B",
"4X c #D77C7C",
"5X c #D87C7C",
"6X c #D97D7D",
"7X c #DA7E7E",
"8X c #DB7F7F",
"9X c #DC7F7F",
"0X c #DD7F7F",
"qX c #DF8181",
"wX c #E08282",
"eX c #E18282",
"rX c #E28383",
"tX c #E38383",
"yX c #E38484",
"uX c #E48484",
"iX c #E58585",
"pX c #E68484",
"aX c #E68585",
"sX c #E78585",
"dX c #E78686",
"fX c #E88686",
"gX c #E98686",
"hX c #E98787",
"jX c #EA8787",
"kX c #EA8888",
"lX c #EB8888",
"zX c #EC8989",
"xX c #ED8989",
"cX c #EE8989",
"vX c #EE8A8A",
"bX c #EF8A8A",
"nX c #F08B8B",
"mX c #F18B8B",
"MX c #F28C8C",
"NX c #F38C8C",
"BX c #F38D8D",
"VX c #F48C8C",
"CX c #F48D8D",
"ZX c #F58D8D",
"AX c #F48E8E",
"SX c #F58E8E",
"DX c #F68E8E",
"FX c #F68F8F",
"GX c #F78F8F",
/* pixels */
"                                                                                                                                ",
"                                                                                                                                ",
"                                                                                                                                ",
"                                                                                                                                ",
"                                                                                                                                ",
"                              = < 7 7 7 6 = *                                     * = 6 7 7 7 < =                               ",
"                        6 M [ 0.V.!.].'.H.p.%.I u *                         * u U =.s.H.'.].~.C.0.] Z 6                         ",
"                    6 ^ 0.].9XiXbXmXGXBXbXiXqX*XN.@.l                     l @.n.*XwXiXbXBXGXmXlXiX9X].0.^ 6                     ",
"                  J 0.+XlXBXGXGXGXGXGXGXGXGXGXGXbX3XN.] <             < ] V.3XbXGXGXGXGXGXGXGXGXGXGXGXiX+X0.J                   ",
"              * ] P.wXBXGXGXGXGXGXGXGXGXGXGXGXGXGXGXbX].3.e         e 6.].bXGXGXGXGXGXGXGXGXGXGXGXGXGXGXGXwXH.) *               ",
"            * } '.bXGXGXGXGXGXGXGXGXGXGXGXGXGXGXGXGXGXmX;Xy.u     u u.;XmXGXGXGXGXGXGXGXGXGXGXGXGXGXGXGXGXGXlX'.] *             ",
"            ] ].bXGXGXGXGXGXGXGXGXGXGXGXGXGXGXGXGXGXGXGXGX3X9.w e 0.3XGXGXGXGXGXGXGXGXGXGXGXGXGXGXGXGXGXGXGXGXbX].]             ",
"          K E.bXGXGXGXGXGXGXGXGXGXGXGXGXGXGXGXGXGXGXGXGXGXBX%X=.:.%XGXGXGXGXGXGXGXGXGXGXGXGXGXGXGXGXGXGXGXGXGXGXbXE.K           ",
"        6 s.wXGXGXGXGXGXGXGXGXGXGXGXGXGXGXGXGXGXGXGXGXGXGXGXBX'.'.BXGXGXGXGXGXGXGXGXGXGXGXGXGXGXGXGXGXGXGXGXGXGXGXwXs.6         ",
"        ..$XGXGXGXGXGXGXGXGXGXGXGXGXGXGXGXGXGXGXGXGXGXGXGXGXGXBXmXGXGXGXGXGXGXGXGXGXGXGXGXGXGXGXGXGXGXGXGXGXGXGXGXGX+X..        ",
"      u h.bXGXGXGXGXGXGXGXGXGXGXGXGXGXGXGXGXGXGXGXGXGXGXGXGXGXFXGXGXGXGXGXGXGXGXGXGXGXGXGXGXGXGXGXGXGXGXGXGXGXGXGXGXbXl.e       ",
"      W oXGXGXGXGXGXGXGXGXGXGXGXGXGXGXGXGXGXGXGXGXGXGXGXGXGXGXGXGXGXGXGXGXGXGXGXGXGXGXGXGXGXGXGXGXGXGXGXGXGXGXGXGXGXGX XR       ",
"    * ,.fXGXGXGXGXGXGXGXGXGXGXGXGXGXGXGXGXGXGXGXGXGXGXGXGXGXGXGXGXGXGXGXGXGXGXGXGXGXGXGXGXGXGXGXGXGXGXGXGXGXGXGXGXGXFXiX:.*     ",
"    e s.bXGXGXGXGXGXGXGXGXGXGXGXGXGXGXGXGXGXGXGXGXGXGXGXGXGXGXGXGXGXGXGXGXGXGXGXGXGXGXGXGXGXGXGXGXGXGXGXGXGXGXGXGXGXGXbXs.w     ",
"    l E.bXGXGXGXGXGXGXGXGXGXGXGXGXGXGXGXGXGXGXGXGXGXGXGXGXGXGXGXGXGXGXGXGXGXGXGXGXGXGXGXGXGXGXGXGXGXGXGXGXGXGXGXGXGXGXbXY.l     ",
"    V $XBXGXGXGXGXGXGXGXGXGXGXGXGXGXGXGXGXGXGXGXGXGXGXGXGXGXGXGXGXGXGXGXGXGXGXGXGXGXGXGXGXGXGXGXGXGXGXGXGXGXGXGXGXGXGXmX+XZ     ",
"    J 3XGXGXGXGXGXGXGXGXGXGXGXGXGXGXGXGXGXGXGXGXGXGXGXGXGXGXGXGXGXGXGXGXGXGXGXGXGXGXGXGXGXGXGXGXGXGXGXGXGXGXGXGXGXGXGXGX3XZ     ",
"    Z ;XGXGXGXGXGXGXGXGXGXGXGXGXGXGXGXGXGXGXGXGXGXGXGXGXGXGXGXGXGXGXGXGXGXGXGXGXGXGXGXGXGXGXGXGXGXGXGXGXGXGXGXGXGXGXGXGX;XJ     ",
"    b '.mXGXGXGXGXGXGXGXGXGXGXGXGXGXGXGXGXGXGXGXGXGXGXGXGXGXGXGXGXGXGXGXGXGXGXGXGXGXGXGXGXGXGXGXGXGXGXGXGXGXGXGXGXGXGXGX+XM     ",
"    u v.bXFXFXGXGXGXGXGXGXGXGXGXGXGXGXGXGXGXGXGXGXGXGXGXGXGXGXGXGXGXGXGXGXGXGXGXGXGXGXGXGXGXGXGXGXGXGXGXGXGXGXGXGXGXGXbXP.f     ",
"    = ,.iXGXGXGXGXGXGXGXGXGXGXGXGXGXGXGXGXGXGXGXGXGXGXGXGXGXGXGXGXGXGXGXGXGXGXGXGXGXGXGXGXGXGXGXGXGXGXGXGXGXGXGXGXGXGXbXu.w     ",
"      ^ oXGXGXGXGXGXGXGXGXGXGXGXGXGXGXGXGXGXGXGXGXGXGXGXGXGXGXGXGXGXGXGXGXGXGXGXGXGXGXGXGXGXGXGXGXGXGXGXGXGXGXGXGXGXGXiX:.*     ",
"      e l.bXGXGXGXGXGXGXGXGXGXGXGXGXGXGXGXGXGXGXGXGXGXGXGXGXGXGXGXGXGXGXGXGXGXGXGXGXGXGXGXGXGXGXGXGXGXGXGXGXGXGXGXGXGX XR       ",
"        @.*XGXGXGXGXGXGXGXGXGXGXGXGXGXGXGXGXGXGXGXGXGXGXGXGXGXGXGXGXGXGXGXGXGXGXGXGXGXGXGXGXGXGXGXGXGXGXGXGXGXGXGXGXmXl.u       ",
"        w N.lXGXGXGXGXGXGXGXGXGXGXGXGXGXGXGXGXGXGXGXGXGXGXGXGXGXGXGXGXGXGXGXGXGXGXGXGXGXGXGXGXGXGXGXGXGXGXGXGXGXGXGX;X=.        ",
"          } %XGXGXGXGXGXGXGXGXGXGXGXGXGXGXGXGXGXGXGXGXGXGXGXGXGXGXGXGXGXGXGXGXGXGXGXGXGXGXGXGXGXGXGXGXGXGXGXGXGXGXmXH.l         ",
"          < t.wXGXGXGXGXGXGXGXGXGXGXGXGXGXGXGXGXGXGXGXGXGXGXGXGXGXGXGXGXGXGXGXGXGXGXGXGXGXGXGXGXGXGXGXGXGXGXGXGXFX;X,.          ",
"            Z Q.bXGXGXGXGXGXGXGXGXGXGXGXGXGXGXGXGXGXGXGXGXGXGXGXGXGXGXGXGXGXGXGXGXGXGXGXGXGXGXGXGXGXGXGXGXGXGXGXlXS.f           ",
"            * ..*XBXGXGXGXGXGXGXGXGXGXGXGXGXGXGXGXGXGXGXGXGXGXGXGXGXGXGXGXGXGXGXGXGXGXGXGXGXGXGXGXGXGXGXGXGXGXBX%X/             ",
"              w 0.qXGXGXGXGXGXGXGXGXGXGXGXGXGXGXGXGXGXGXGXGXGXGXGXGXGXGXGXGXGXGXGXGXGXGXGXGXGXGXGXGXGXGXGXGXGXiXr.w             ",
"                M C.lXGXGXGXGXGXGXGXGXGXGXGXGXGXGXGXGXGXGXGXGXGXGXGXGXGXGXGXGXGXGXGXGXGXGXGXGXGXGXGXGXGXGXGXbXH.Z               ",
"                  Y !.mXGXGXGXGXGXGXGXGXGXGXGXGXGXGXGXGXGXGXGXGXGXGXGXGXGXGXGXGXGXGXGXGXGXGXGXGXGXGXGXGXGXBX].} *               ",
"                  * } +XBXGXGXGXGXGXGXGXGXGXGXGXGXGXGXGXGXGXGXGXGXGXGXGXGXGXGXGXGXGXGXGXGXGXGXGXGXGXGXGXGX4X7.<                 ",
"                    6 2.;XBXFXFXGXGXGXGXGXGXGXGXGXGXGXGXGXGXGXGXGXGXGXGXGXGXGXGXGXGXGXGXGXGXGXGXGXGXGXGXwXs.w                   ",
"                      u r.8XGXFXGXGXGXGXGXGXGXGXGXGXGXGXGXGXGXGXGXGXGXGXGXGXGXGXGXGXGXGXGXGXGXGXGXGXFXlXV.c                     ",
"                        g l.wXGXGXGXGXGXGXGXGXGXGXGXGXGXGXGXGXGXGXGXGXGXGXGXGXGXGXGXGXGXGXGXGXGXGXGXlXY.R                       ",
"                          l n.iXGXGXGXGXGXGXGXGXGXGXGXGXGXGXGXGXGXGXGXGXGXGXGXGXGXGXGXGXGXGXGXGXGXbXQ.] *                       ",
"                            B V.fXFXGXGXGXGXGXGXGXGXGXGXGXGXGXGXGXGXGXGXGXGXGXGXGXGXGXGXGXGXFXFXmX]...*                         ",
"                              H C.fXGXGXGXGXGXGXGXGXGXGXGXGXGXGXGXGXGXGXGXGXGXGXGXGXGXGXGXGXGXbX+X@.*                           ",
"                              * K G.lXGXGXGXGXGXGXGXGXGXGXGXGXGXGXGXGXGXGXGXGXGXGXGXGXGXGXGXBXoX=.:                             ",
"                                  Z G.fXFXGXGXGXGXGXGXGXGXGXGXGXGXGXGXGXGXGXGXGXGXGXGXGXGXbX].=.:                               ",
"                                    Z C.fXGXGXGXGXGXGXGXGXGXGXGXGXGXGXGXGXGXGXGXGXGXGXGXlX].@.*                                 ",
"                                      Z N.iXGXGXGXGXGXGXGXGXGXGXGXGXGXGXGXGXGXGXGXGXFXbXQ.} *                                   ",
"                                        B N.yXGXGXGXGXGXGXGXGXGXGXGXGXGXGXGXGXGXGXGXfXH.^ *                                     ",
"                                          b n.qXGXGXGXGXGXGXGXGXGXGXGXGXGXGXGXGXGXwXV.K *                                       ",
"                                            l k.8XBXGXGXGXGXGXGXGXGXGXGXGXGXGXGX8Xh.b                                           ",
"                                              l r.;XBXGXGXGXGXGXGXGXGXGXGXGXmX*X0.u                                             ",
"                                                u 3.%XBXGXGXGXGXGXGXGXGXGXbX~.:.w                                               ",
"                                                  w =. XmXGXGXGXGXGXGXGXiXY./ =                                                 ",
"                                                    : } Q.bXGXGXGXGXmX3Xx.M                                                     ",
"                                                      * ^ G.wXGXGXbX X3.g                                                       ",
"                                                          J x.8XqXY.) 6                                                         ",
"                                                            l 3.7.M                                                             ",
"                                                              * *                                                               ",
"                                                                                                                                ",
"                                                                                                                                ",
"                                                                                                                                ",
"                                                                                                                                ",
"                                                                                                                                "
};
