/* XPM */
static char *_577037045860[] = {
/* columns rows colors chars-per-pixel */
"64 64 51 1 ",
"  c #2ECC71",
". c #31CC72",
"X c #31CD72",
"o c #34CC73",
"O c #3BCD75",
"+ c #3DCD76",
"@ c #42CE77",
"# c #41CF78",
"$ c #42CE78",
"% c #46CD7A",
"& c #48CE7B",
"* c #4CCF7D",
"= c #51CE7F",
"- c #4CD07D",
"; c #53CF80",
": c #54D180",
"> c #5BD184",
", c #64D38A",
"< c #6DD38F",
"1 c #6ED58F",
"2 c #71D491",
"3 c #81D79B",
"4 c #83D89D",
"5 c #8FDBA5",
"6 c #92DAA7",
"7 c #97DCAB",
"8 c #9DDFAF",
"9 c #A4DFB5",
"0 c #A8E1B7",
"q c #B6E5C2",
"w c #B8E6C4",
"e c #BBE6C7",
"r c #BCE7C8",
"t c #C2E9CC",
"y c #C8EBD1",
"u c #CFEDD6",
"i c #D6F0DC",
"p c #D6F0DD",
"a c #D8F0DD",
"s c #DFF3E4",
"d c #E4F4E8",
"f c #E5F5E9",
"g c #E8F6EB",
"h c #EEF8F1",
"j c #F0F9F2",
"k c #F5FBF7",
"l c #F6FBF8",
"z c #F7FCF8",
"x c #F8FCF9",
"c c #FCFDFC",
"v c white",
/* pixels */
"vvvvvvvvvvvvvvvvvvvvvvvvvvvvvvvvvvvvvvvvvvvvvvvvvvvvvvvvvvvvvvvv",
"vvvvvvvvvvvvvvvvvvvvvvvvvvvvvvvvvvvvvvvvvvvvvvvvvvvvvvvvvvvvvvvv",
"vvvvvvvvvvvvvvvvvvvvvvvvvvvvvvvvvvvvvvvvvvvvvvvvvvvvvvvvvvvvvvvv",
"vvvvvvvvvvvvvvvvvvvvvvvvvvvvvvvvvvvvvvvvvvvvvvvvvvvvvvvvvvvvvvvv",
"vvvvvvvvvvvvvvvvvvvvvvvvvvvvvvvvvvvvvvvvvvvvvvvvvvvvvvvvvvvvvvvv",
"vvvvvvvvvvvvvvvvvvvvvvvvvvvvvvvvvvvvvvvvvvvvvvvvvvvvvvvvvvvvvvvv",
"vvvvvvvvvvvvvvvvvvvvvvvvvvvvvvvvvvvvvvvvvvvvvvvvvvvvvvvvvvvvvvvv",
"vvvvvvvvvvvvvvvvvvvvvvvvvvvvvvvvvvvvvvvvvvvvvvvvvvvvvvvvvvvvvvvv",
"vvvvvvvvvvvvvvvvvvvvvvvvvvvvvvvvvvvvvvvvvvvvvvvvvvvvvvvvvvvvvvvv",
"vvvvvvvvvvvvvvvvvvvvvvvvvvvvvvvvvvvvvvvvvvvvvvvvvvvvvvvvvvvvvvvv",
"vvvvvvvvvvvvvvvvvvvvvvvvvvvvvvvvvvvvvvvvvvvvvvvvvvvvvvvvvvvvvvvv",
"vvvvvvvvvvvvvvvvvvvvvvvvvvvvvvvvvvvvvvvvvvvvvvvvvvvvvvvvvvvvvvvv",
"vvvvvvvvvvvvvvvvvvvvvvvvvvvvvvvvvvvvvvvvvvvvvvvvvvvvvvvvvvvvvvvv",
"vvvvvvvvvvvvvvvvvvvvvvvvvvvvvvvvvvvvvvvvvvvvhsy93>vvvvvvvvvvvvvv",
"vvvvvvvvvvvvvvvvvvvvvvvvvvvvvvvvvvvvvlduq6,+=;#   vvvvvvvvvvvvvv",
"vvvvvvvvvvvvvvvvvvvvvvvvvvvvvvvjsy04;#;&X         vvvvvvvvvvvvvv",
"vvvvvvvvvvvvvvvvvvvvvvvvzgpe72O&=+                vvvvvvvvvvvvvv",
"vvvvvvvvvvvvvvvvvvvvvvvv ;-X                      vvvvvvvvvvvvvv",
"vvvvvvvvvvvvvvvvvvvvvvvv                          vvvvvvvvvvvvvv",
"vvvvvvvvvvvvvvvvvvvvvvvv                          vvvvvvvvvvvvvv",
"vvvvvvvvvvvvvvvvvvvvvvvv                          vvvvvvvvvvvvvv",
"vvvvvvvvvvvvvvvvvvvvvvvv                          vvvvvvvvvvvvvv",
"vvvvvvvvvvvvvvvvvvvvvvvv                          vvvvvvvvvvvvvv",
"vvvvvvvvvvvvvvvvvvvvvvvv                O*%O,5    vvvvvvvvvvvvvv",
"vvvvvvvvvvvvvvvvvvvvvvvv          &=&%28tpgvvv    vvvvvvvvvvvvvv",
"vvvvvvvvvvvvvvvvvvvvvvvv   +;*O,6qudxvvvvvvvvv    vvvvvvvvvvvvvv",
"vvvvvvvvvvvvvvvvvvvvvvvv    ahvvvvvvvvvvvvvvvv    vvvvvvvvvvvvvv",
"vvvvvvvvvvvvvvvvvvvvvvvv    vvvvvvvvvvvvvvvvvv    vvvvvvvvvvvvvv",
"vvvvvvvvvvvvvvvvvvvvvvvv    vvvvvvvvvvvvvvvvvv    vvvvvvvvvvvvvv",
"vvvvvvvvvvvvvvvvvvvvvvvv    vvvvvvvvvvvvvvvvvv    vvvvvvvvvvvvvv",
"vvvvvvvvvvvvvvvvvvvvvvvv    vvvvvvvvvvvvvvvvvv    vvvvvvvvvvvvvv",
"vvvvvvvvvvvvvvvvvvvvvvvv    vvvvvvvvvvvvvvvvvv    vvvvvvvvvvvvvv",
"vvvvvvvvvvvvvvvvvvvvvvvv    vvvvvvvvvvvvvvvvvv    vvvvvvvvvvvvvv",
"vvvvvvvvvvvvvvvvvvvvvvvv    vvvvvvvvvvvvvvvvvv    vvvvvvvvvvvvvv",
"vvvvvvvvvvvvvvvvvvvvvvvv    vvvvvvvvvvvkw<##2e    vvvvvvvvvvvvvv",
"vvvvvvvvvvvvvvvvvvvvvvvv    vvvvvvvvvvp&#    @o   vvvvvvvvvvvvvv",
"vvvvvvvvvvvvvvvvvke<@@2r    vvvvvvvvvp&           vvvvvvvvvvvvvv",
"vvvvvvvvvvvvvvvvp&+    +X   vvvvvvvvk&            vvvvvvvvvvvvvv",
"vvvvvvvvvvvvvvvi& X         vvvvvvvvw@            vvvvvvvvvvvvvv",
"vvvvvvvvvvvvvvk-            vvvvvvvv<             vvvvvvvvvvvvvv",
"vvvvvvvvvvvvvve+            vvvvvvvv#             vvvvvvvvvvvvvv",
"vvvvvvvvvvvvvv<             vvvvvvvv#            @vvvvvvvvvvvvvv",
"vvvvvvvvvvvvvv#             vvvvvvvv<            2vvvvvvvvvvvvvv",
"vvvvvvvvvvvvvv#            %vvvvvvvve#          #wvvvvvvvvvvvvvv",
"vvvvvvvvvvvvvv<            2vvvvvvvvk%          -lvvvvvvvvvvvvvv",
"vvvvvvvvvvvvvvw@          #evvvvvvvvvp&X       %pvvvvvvvvvvvvvvv",
"vvvvvvvvvvvvvvk&          *kvvvvvvvvvvp&@X   %-pvvvvvvvvvvvvvvvv",
"vvvvvvvvvvvvvvvp&        &avvvvvvvvvvvvkq2##2wkvvvvvvvvvvvvvvvvv",
"vvvvvvvvvvvvvvvvp&#    #&avvvvvvvvvvvvvvvvvvvvvvvvvvvvvvvvvvvvvv",
"vvvvvvvvvvvvvvvvvke2#@<exvvvvvvvvvvvvvvvvvvvvvvvvvvvvvvvvvvvvvvv",
"vvvvvvvvvvvvvvvvvvvvvvvvvvvvvvvvvvvvvvvvvvvvvvvvvvvvvvvvvvvvvvvv",
"vvvvvvvvvvvvvvvvvvvvvvvvvvvvvvvvvvvvvvvvvvvvvvvvvvvvvvvvvvvvvvvv",
"vvvvvvvvvvvvvvvvvvvvvvvvvvvvvvvvvvvvvvvvvvvvvvvvvvvvvvvvvvvvvvvv",
"vvvvvvvvvvvvvvvvvvvvvvvvvvvvvvvvvvvvvvvvvvvvvvvvvvvvvvvvvvvvvvvv",
"vvvvvvvvvvvvvvvvvvvvvvvvvvvvvvvvvvvvvvvvvvvvvvvvvvvvvvvvvvvvvvvv",
"vvvvvvvvvvvvvvvvvvvvvvvvvvvvvvvvvvvvvvvvvvvvvvvvvvvvvvvvvvvvvvvv",
"vvvvvvvvvvvvvvvvvvvvvvvvvvvvvvvvvvvvvvvvvvvvvvvvvvvvvvvvvvvvvvvv",
"vvvvvvvvvvvvvvvvvvvvvvvvvvvvvvvvvvvvvvvvvvvvvvvvvvvvvvvvvvvvvvvv",
"vvvvvvvvvvvvvvvvvvvvvvvvvvvvvvvvvvvvvvvvvvvvvvvvvvvvvvvvvvvvvvvv",
"vvvvvvvvvvvvvvvvvvvvvvvvvvvvvvvvvvvvvvvvvvvvvvvvvvvvvvvvvvvvvvvv",
"vvvvvvvvvvvvvvvvvvvvvvvvvvvvvvvvvvvvvvvvvvvvvvvvvvvvvvvvvvvvvvvv",
"vvvvvvvvvvvvvvvvvvvvvvvvvvvvvvvvvvvvvvvvvvvvvvvvvvvvvvvvvvvvvvvv",
"vvvvvvvvvvvvvvvvvvvvvvvvvvvvvvvvvvvvvvvvvvvvvvvvvvvvvvvvvvvvvvvv",
"vvvvvvvvvvvvvvvvvvvvvvvvvvvvvvvvvvvvvvvvvvvvvvvvvvvvvvvvvvvvvvvv"
};
